<mxfile host="app.diagrams.net" agent="Mozilla/5.0 (Windows NT 10.0; Win64; x64) AppleWebKit/537.36 (KHTML, like Gecko) Chrome/131.0.0.0 Safari/537.36" version="24.8.6">
  <diagram name="Page-1" id="Xz-AATxooV6T6Z_PFoKD">
    <mxGraphModel dx="1434" dy="772" grid="1" gridSize="10" guides="1" tooltips="1" connect="1" arrows="1" fold="1" page="1" pageScale="1" pageWidth="850" pageHeight="1100" math="0" shadow="0">
      <root>
        <mxCell id="0" />
        <mxCell id="1" parent="0" />
        <mxCell id="K2I7LpqnR5TKulHtOwX6-1" value="Start" style="ellipse;whiteSpace=wrap;html=1;" vertex="1" parent="1">
          <mxGeometry x="170" y="100" width="120" height="60" as="geometry" />
        </mxCell>
        <mxCell id="K2I7LpqnR5TKulHtOwX6-2" value="" style="endArrow=classic;html=1;rounded=0;strokeWidth=2;" edge="1" parent="1">
          <mxGeometry width="50" height="50" relative="1" as="geometry">
            <mxPoint x="229.5" y="160" as="sourcePoint" />
            <mxPoint x="229.5" y="210" as="targetPoint" />
          </mxGeometry>
        </mxCell>
        <mxCell id="K2I7LpqnR5TKulHtOwX6-3" value="Nhập&lt;div&gt;a , b&lt;/div&gt;" style="shape=parallelogram;perimeter=parallelogramPerimeter;whiteSpace=wrap;html=1;fixedSize=1;" vertex="1" parent="1">
          <mxGeometry x="160" y="210" width="140" height="60" as="geometry" />
        </mxCell>
        <mxCell id="K2I7LpqnR5TKulHtOwX6-4" value="" style="endArrow=classic;html=1;rounded=0;strokeWidth=2;" edge="1" parent="1">
          <mxGeometry width="50" height="50" relative="1" as="geometry">
            <mxPoint x="229.5" y="270" as="sourcePoint" />
            <mxPoint x="229.5" y="320" as="targetPoint" />
            <Array as="points">
              <mxPoint x="230" y="300" />
            </Array>
          </mxGeometry>
        </mxCell>
        <mxCell id="K2I7LpqnR5TKulHtOwX6-6" value="" style="endArrow=classic;html=1;rounded=0;strokeWidth=2;" edge="1" parent="1">
          <mxGeometry width="50" height="50" relative="1" as="geometry">
            <mxPoint x="229.5" y="400" as="sourcePoint" />
            <mxPoint x="229.5" y="450" as="targetPoint" />
            <Array as="points">
              <mxPoint x="230" y="430" />
            </Array>
          </mxGeometry>
        </mxCell>
        <mxCell id="K2I7LpqnR5TKulHtOwX6-7" value="" style="endArrow=classic;html=1;rounded=0;" edge="1" parent="1">
          <mxGeometry width="50" height="50" relative="1" as="geometry">
            <mxPoint x="229.5" y="510" as="sourcePoint" />
            <mxPoint x="229.5" y="560" as="targetPoint" />
            <Array as="points">
              <mxPoint x="230" y="540" />
            </Array>
          </mxGeometry>
        </mxCell>
        <mxCell id="K2I7LpqnR5TKulHtOwX6-8" value="" style="endArrow=classic;html=1;rounded=0;exitX=1;exitY=0.5;exitDx=0;exitDy=0;strokeWidth=2;" edge="1" parent="1" source="K2I7LpqnR5TKulHtOwX6-9">
          <mxGeometry width="50" height="50" relative="1" as="geometry">
            <mxPoint x="425" y="360" as="sourcePoint" />
            <mxPoint x="400" y="360" as="targetPoint" />
            <Array as="points">
              <mxPoint x="360" y="360" />
            </Array>
          </mxGeometry>
        </mxCell>
        <mxCell id="K2I7LpqnR5TKulHtOwX6-9" value="a &amp;gt; b" style="rhombus;whiteSpace=wrap;html=1;" vertex="1" parent="1">
          <mxGeometry x="150" y="320" width="160" height="80" as="geometry" />
        </mxCell>
        <mxCell id="K2I7LpqnR5TKulHtOwX6-18" value="" style="edgeStyle=orthogonalEdgeStyle;rounded=0;orthogonalLoop=1;jettySize=auto;html=1;strokeWidth=2;" edge="1" parent="1" source="K2I7LpqnR5TKulHtOwX6-10" target="K2I7LpqnR5TKulHtOwX6-11">
          <mxGeometry relative="1" as="geometry" />
        </mxCell>
        <mxCell id="K2I7LpqnR5TKulHtOwX6-10" value="a là số nhỏ hơn" style="shape=parallelogram;perimeter=parallelogramPerimeter;whiteSpace=wrap;html=1;fixedSize=1;" vertex="1" parent="1">
          <mxGeometry x="160" y="450" width="140" height="60" as="geometry" />
        </mxCell>
        <mxCell id="K2I7LpqnR5TKulHtOwX6-11" value="End" style="ellipse;whiteSpace=wrap;html=1;" vertex="1" parent="1">
          <mxGeometry x="170" y="560" width="120" height="60" as="geometry" />
        </mxCell>
        <mxCell id="K2I7LpqnR5TKulHtOwX6-13" value="Đúng" style="text;html=1;align=center;verticalAlign=middle;resizable=0;points=[];autosize=1;strokeColor=none;fillColor=none;" vertex="1" parent="1">
          <mxGeometry x="330" y="330" width="50" height="30" as="geometry" />
        </mxCell>
        <mxCell id="K2I7LpqnR5TKulHtOwX6-14" value="Sai" style="text;html=1;align=center;verticalAlign=middle;resizable=0;points=[];autosize=1;strokeColor=none;fillColor=none;rotation=90;" vertex="1" parent="1">
          <mxGeometry x="220" y="400" width="40" height="30" as="geometry" />
        </mxCell>
        <mxCell id="K2I7LpqnR5TKulHtOwX6-15" value="b là số nhỏ hơn" style="shape=parallelogram;perimeter=parallelogramPerimeter;whiteSpace=wrap;html=1;fixedSize=1;" vertex="1" parent="1">
          <mxGeometry x="390" y="330" width="120" height="60" as="geometry" />
        </mxCell>
        <mxCell id="K2I7LpqnR5TKulHtOwX6-17" value="" style="endArrow=classic;html=1;rounded=0;entryX=1;entryY=0.5;entryDx=0;entryDy=0;exitX=0.425;exitY=1;exitDx=0;exitDy=0;exitPerimeter=0;strokeWidth=2;" edge="1" parent="1" source="K2I7LpqnR5TKulHtOwX6-15" target="K2I7LpqnR5TKulHtOwX6-11">
          <mxGeometry width="50" height="50" relative="1" as="geometry">
            <mxPoint x="520" y="490" as="sourcePoint" />
            <mxPoint x="440" y="600" as="targetPoint" />
            <Array as="points">
              <mxPoint x="440" y="590" />
            </Array>
          </mxGeometry>
        </mxCell>
      </root>
    </mxGraphModel>
  </diagram>
</mxfile>
